<?xml version="1.0" standalone="no"?>
<!DOCTYPE svg PUBLIC "-//W3C//DTD SVG 20010904//EN"
 "http://www.w3.org/TR/2001/REC-SVG-20010904/DTD/svg10.dtd">
<svg version="1.0" xmlns="http://www.w3.org/2000/svg"
 width="20" height="20" viewBox="0 0 512.000000 512.000000"
 preserveAspectRatio="xMidYMid meet">

<g transform="translate(0.000000,512.000000) scale(0.100000,-0.100000)"
fill="#fff" stroke="none">
<path d="M2341 5108 c-35 -5 -78 -15 -96 -22 -18 -8 -282 -175 -586 -372 -375
-242 -571 -374 -605 -409 -82 -83 -89 -114 -89 -395 0 -265 10 -320 68 -386
62 -71 139 -82 264 -35 43 15 222 108 397 205 176 97 321 176 323 176 1 0 3
-218 3 -485 0 -517 2 -539 48 -564 39 -21 91 -13 123 18 l29 29 0 606 0 606
-28 31 c-51 58 -57 55 -510 -195 -421 -233 -487 -265 -506 -246 -7 7 -12 90
-14 223 -3 188 -1 216 15 247 15 29 110 94 578 398 323 208 575 365 595 370
47 10 575 9 623 -1 l37 -8 0 -2020 c0 -2127 -1 -2068 41 -2095 8 -5 205 -11
438 -14 l425 -5 20 -35 c19 -32 21 -51 21 -240 0 -156 -4 -214 -15 -245 l-15
-40 -1358 -3 -1358 -2 -15 35 c-40 96 -40 403 -1 498 l16 37 476 0 477 0 29
29 29 29 0 606 0 606 -28 31 c-30 34 -80 42 -122 19 -49 -26 -50 -42 -50 -600
l0 -520 -400 0 c-243 0 -418 -4 -448 -11 -94 -20 -166 -110 -190 -239 -32
-164 -21 -426 22 -545 29 -81 59 -118 120 -150 l50 -25 1390 0 c1333 0 1393 1
1431 19 81 37 134 128 155 262 17 107 8 417 -14 486 -24 75 -74 144 -126 173
l-45 25 -377 3 -378 3 0 1990 c0 2166 4 2025 -56 2081 -65 61 -185 78 -519 77
-126 -1 -259 -6 -294 -11z"/>
<path d="M2089 2546 c-48 -15 -75 -72 -59 -121 15 -44 44 -65 93 -65 83 0 126
94 72 158 -29 35 -60 43 -106 28z"/>
</g>
</svg>
