<?xml version="1.0" standalone="no"?>
<!DOCTYPE svg PUBLIC "-//W3C//DTD SVG 20010904//EN"
 "http://www.w3.org/TR/2001/REC-SVG-20010904/DTD/svg10.dtd">
<svg version="1.0" xmlns="http://www.w3.org/2000/svg"
 width="512.000000pt" height="512.000000pt" viewBox="0 0 512.000000 512.000000"
 preserveAspectRatio="xMidYMid meet">

<g transform="translate(0.000000,512.000000) scale(0.100000,-0.100000)"
fill="#fff" stroke="none">
<path d="M2300 5113 c-189 -15 -491 -79 -679 -145 -255 -89 -463 -201 -564
-304 -104 -106 -132 -226 -124 -514 4 -102 13 -218 21 -258 31 -150 98 -222
207 -222 66 0 93 13 278 123 271 163 460 226 701 234 216 8 337 -28 438 -127
179 -176 188 -504 26 -883 -40 -93 -40 -129 2 -168 35 -33 95 -33 129 2 58 57
144 306 170 489 63 443 -102 748 -465 862 -67 21 -94 23 -260 23 -210 0 -286
-13 -460 -75 -141 -50 -249 -103 -409 -199 -73 -45 -137 -81 -141 -81 -20 0
-35 144 -35 330 0 224 8 261 65 323 69 76 255 174 468 248 329 113 612 158
922 146 434 -17 772 -142 998 -369 236 -235 333 -565 293 -994 -37 -395 -151
-669 -449 -1077 -201 -276 -346 -438 -887 -990 -520 -531 -535 -548 -535 -593
0 -26 8 -44 29 -65 l29 -29 975 0 c1119 0 997 13 1023 -111 20 -94 15 -382 -8
-444 l-15 -40 -1456 0 -1456 0 -28 21 c-49 37 -57 78 -58 299 0 179 2 207 22
270 31 99 87 178 243 344 74 80 310 332 523 560 214 228 395 428 403 444 39
74 -49 162 -129 131 -20 -7 -1055 -1114 -1107 -1184 -55 -73 -113 -190 -135
-270 -11 -45 -18 -121 -22 -245 -8 -283 20 -401 119 -490 96 -86 -37 -80 1621
-83 1054 -2 1480 1 1510 9 28 7 57 26 87 58 74 76 100 186 99 426 0 156 -15
265 -49 343 -23 53 -89 123 -138 145 -20 9 -239 13 -882 17 l-855 5 319 325
c176 179 374 384 441 456 349 376 607 722 754 1014 163 322 215 549 215 940 0
186 -3 229 -23 320 -117 543 -497 894 -1096 1015 -195 39 -458 54 -665 38z"/>
<path d="M2364 2596 c-38 -38 -43 -72 -17 -116 38 -66 134 -65 169 1 26 52 10
110 -37 135 -45 23 -78 17 -115 -20z"/>
</g>
</svg>
