<?xml version="1.0" standalone="no"?>
<!DOCTYPE svg PUBLIC "-//W3C//DTD SVG 20010904//EN"
 "http://www.w3.org/TR/2001/REC-SVG-20010904/DTD/svg10.dtd">
<svg version="1.0" xmlns="http://www.w3.org/2000/svg"
 width="512.000000pt" height="512.000000pt" viewBox="0 0 512.000000 512.000000"
 preserveAspectRatio="xMidYMid meet">

<g transform="translate(0.000000,512.000000) scale(0.100000,-0.100000)"
fill="#fff" stroke="none">
<path d="M2250 5109 c-442 -41 -926 -217 -1139 -415 -103 -95 -131 -192 -131
-454 0 -184 12 -276 44 -346 27 -58 64 -89 127 -103 64 -15 124 2 231 66 244
145 477 245 648 277 103 20 274 20 364 1 38 -8 98 -28 134 -45 96 -45 146 -39
178 22 31 60 3 114 -81 155 -113 56 -244 83 -405 83 -199 0 -388 -46 -622
-151 -98 -44 -95 -43 -271 -144 -91 -52 -121 -65 -130 -56 -17 17 -23 370 -7
444 14 70 34 96 124 156 205 139 514 249 836 298 161 24 531 25 685 0 373 -58
649 -206 810 -432 235 -329 245 -890 23 -1262 -47 -79 -178 -215 -258 -268
-87 -58 -191 -106 -302 -140 -62 -18 -93 -33 -108 -52 -22 -29 -26 -79 -9
-117 13 -27 64 -56 101 -56 46 0 237 -49 314 -81 446 -182 680 -567 635 -1044
-39 -413 -218 -719 -551 -941 -282 -187 -636 -285 -1085 -301 -412 -14 -832
65 -1132 213 -119 58 -155 90 -173 152 -22 72 -35 297 -23 404 6 55 13 102 16
104 2 2 64 -25 138 -60 234 -111 475 -189 684 -221 59 -9 170 -15 270 -15 250
-1 398 30 566 116 251 129 379 345 379 639 0 143 -19 229 -74 341 -98 197
-278 335 -536 410 -169 49 -243 56 -613 61 l-348 5 -17 26 c-15 22 -17 54 -17
227 0 136 4 209 12 228 l13 27 278 0 c152 0 316 5 362 10 197 24 379 94 506
193 116 91 214 234 200 292 -11 43 -50 75 -91 75 -51 0 -69 -12 -114 -78 -97
-142 -235 -226 -446 -273 -27 -6 -205 -14 -395 -18 -330 -6 -347 -7 -387 -28
-55 -30 -97 -83 -119 -151 -27 -81 -28 -459 -2 -543 23 -73 68 -133 120 -161
42 -22 55 -23 418 -29 404 -8 476 -16 638 -72 217 -76 363 -223 401 -405 16
-76 14 -218 -4 -287 -25 -95 -54 -145 -124 -215 -149 -148 -373 -207 -717
-188 -246 13 -468 78 -779 226 -129 62 -145 67 -207 67 -73 0 -99 -13 -150
-76 -49 -61 -62 -139 -62 -359 2 -357 46 -460 245 -572 476 -266 1270 -342
1902 -182 633 160 1079 591 1191 1149 95 480 -17 888 -327 1182 -114 108 -294
220 -439 273 -30 11 -32 13 -14 23 171 105 290 215 378 347 100 151 152 280
190 472 30 150 31 424 4 568 -116 598 -544 937 -1275 1010 -117 11 -354 11
-481 -1z"/>
<path d="M2824 3870 c-55 -22 -72 -108 -31 -155 48 -56 133 -40 163 31 12 29
12 39 0 68 -24 57 -75 79 -132 56z"/>
</g>
</svg>
