<?xml version="1.0" standalone="no"?>
<!DOCTYPE svg PUBLIC "-//W3C//DTD SVG 20010904//EN"
 "http://www.w3.org/TR/2001/REC-SVG-20010904/DTD/svg10.dtd">
<svg version="1.0" xmlns="http://www.w3.org/2000/svg"
 width="512.000000pt" height="512.000000pt" viewBox="0 0 512.000000 512.000000"
 preserveAspectRatio="xMidYMid meet">

<g transform="translate(0.000000,512.000000) scale(0.100000,-0.100000)"
fill="#fff" stroke="none">
<path d="M2748 5109 c-200 -14 -344 -57 -406 -122 -34 -35 -1519 -2648 -1588
-2792 -72 -154 -104 -337 -104 -605 0 -260 33 -404 110 -480 78 -79 15 -74
1047 -78 l922 -3 3 -417 3 -417 25 -45 c65 -116 238 -157 615 -147 297 8 414
41 480 135 l30 44 3 423 3 423 193 4 c191 3 193 3 234 31 80 52 123 150 143
319 13 111 7 300 -12 389 -27 125 -99 227 -176 248 -21 6 -116 11 -210 11
l-173 0 0 1433 c0 1371 -1 1434 -19 1472 -47 103 -174 153 -446 175 -143 11
-514 11 -677 -1z m796 -213 c50 -9 101 -22 115 -29 l26 -12 5 -1480 c5 -1562
4 -1510 50 -1535 11 -6 109 -10 243 -10 184 0 227 -3 237 -15 56 -68 65 -417
13 -546 l-15 -39 -234 0 c-232 0 -233 0 -261 -24 l-28 -24 -3 -470 -3 -469
-39 -12 c-145 -43 -579 -41 -687 4 l-33 14 0 460 0 460 -24 28 -24 28 -987 5
c-1123 6 -1003 -6 -1027 99 -17 77 -17 471 1 571 15 85 53 196 86 255 13 22
359 634 770 1360 411 726 757 1328 769 1337 28 23 144 48 264 58 165 14 684 4
786 -14z"/>
<path d="M2758 4233 c-14 -16 -120 -195 -236 -399 -232 -406 -235 -413 -183
-465 35 -34 95 -40 130 -11 12 9 75 112 141 227 l120 210 0 -882 0 -883 -506
0 -506 0 14 23 c8 12 85 146 171 297 171 299 176 315 131 369 -21 26 -33 31
-69 31 -26 0 -51 -7 -63 -17 -12 -10 -118 -188 -237 -395 -238 -417 -241 -424
-186 -479 l29 -29 682 0 682 0 29 29 29 29 0 1157 0 1157 -29 29 c-41 41 -106
41 -143 2z"/>
<path d="M2163 3142 c-69 -11 -98 -110 -46 -164 53 -55 151 -26 166 50 5 29
-13 85 -32 97 -20 12 -65 21 -88 17z"/>
</g>
</svg>
