<?xml version="1.0" standalone="no"?>
<!DOCTYPE svg PUBLIC "-//W3C//DTD SVG 20010904//EN"
 "http://www.w3.org/TR/2001/REC-SVG-20010904/DTD/svg10.dtd">
<svg version="1.0" xmlns="http://www.w3.org/2000/svg"
 width="512.000000pt" height="512.000000pt" viewBox="0 0 512.000000 512.000000"
 preserveAspectRatio="xMidYMid meet">

<g transform="translate(0.000000,512.000000) scale(0.100000,-0.100000)"
fill="#000000" stroke="none">
<path d="M1304 5109 c-118 -27 -202 -120 -224 -247 -8 -48 -10 -386 -8 -1217
3 -1142 3 -1150 24 -1195 74 -158 176 -182 604 -140 288 29 626 25 780 -9 126
-27 151 -27 183 4 35 36 41 70 20 113 -15 30 -28 40 -71 54 -175 59 -548 74
-913 39 -217 -21 -345 -26 -386 -15 -15 4 -26 18 -33 43 -8 24 -10 398 -8
1173 3 1135 3 1137 24 1165 11 15 32 31 45 34 13 4 551 7 1195 8 l1172 1 11
-27 c47 -116 40 -539 -10 -599 -10 -12 -152 -14 -881 -14 -794 0 -872 -1 -898
-17 -16 -9 -33 -27 -39 -40 -8 -16 -11 -198 -11 -569 l0 -546 30 -30 30 -30
158 9 c257 13 630 8 767 -11 380 -54 655 -175 851 -378 237 -245 332 -530 321
-963 -10 -397 -110 -680 -335 -948 -406 -482 -1238 -673 -2112 -485 -122 26
-351 101 -415 136 -86 46 -90 63 -90 352 0 170 4 253 12 272 l12 27 134 -64
c325 -155 603 -213 966 -202 192 6 297 22 436 68 230 75 406 236 492 451 37
90 63 229 63 336 0 90 -1 95 -29 123 -40 39 -89 40 -133 0 -31 -28 -32 -30
-39 -142 -9 -137 -27 -209 -77 -303 -119 -228 -373 -336 -787 -336 -302 0
-528 53 -817 191 -198 95 -262 102 -337 33 -84 -75 -105 -184 -98 -498 6 -286
21 -341 112 -425 100 -92 383 -189 719 -246 552 -93 1132 -37 1548 152 539
243 855 653 960 1243 21 118 18 541 -5 655 -42 213 -108 380 -215 540 -222
334 -595 538 -1119 611 -103 15 -194 18 -465 18 l-338 0 0 408 0 408 833 0
c787 0 834 1 872 19 22 10 50 29 62 42 35 38 74 133 89 217 18 102 18 393 -1
496 -25 140 -85 228 -174 255 -48 14 -2394 14 -2457 0z"/>
<path d="M2909 2202 c-54 -48 -39 -130 28 -158 27 -12 42 -13 69 -4 70 23 88
108 35 161 -40 39 -89 40 -132 1z"/>
</g>
</svg>
