<?xml version="1.0" standalone="no"?>
<!DOCTYPE svg PUBLIC "-//W3C//DTD SVG 20010904//EN"
 "http://www.w3.org/TR/2001/REC-SVG-20010904/DTD/svg10.dtd">
<svg version="1.0" xmlns="http://www.w3.org/2000/svg"
 width="512.000000pt" height="512.000000pt" viewBox="0 0 512.000000 512.000000"
 preserveAspectRatio="xMidYMid meet">

<g transform="translate(0.000000,512.000000) scale(0.100000,-0.100000)"
fill="#fff" stroke="none">
<path d="M2735 5114 c-735 -61 -1279 -412 -1584 -1021 -165 -330 -262 -698
-307 -1168 -25 -251 -25 -891 -1 -1155 34 -363 84 -598 180 -845 163 -424 439
-692 852 -831 331 -112 818 -124 1187 -29 581 150 997 554 1159 1125 131 462
93 1043 -91 1411 -63 125 -131 218 -230 313 -101 97 -191 159 -323 221 -409
194 -1050 187 -1519 -15 l-88 -38 0 33 c0 53 40 273 67 365 85 295 256 513
486 620 132 62 200 74 437 74 244 1 335 -12 530 -71 231 -71 259 -77 319 -65
109 23 162 98 181 257 13 114 13 309 0 400 -12 84 -58 183 -103 221 -82 69
-288 136 -544 174 -134 21 -483 34 -608 24z m435 -204 c230 -24 413 -64 532
-117 81 -36 90 -59 96 -248 4 -146 -8 -289 -25 -306 -5 -5 -73 10 -158 36
-280 85 -453 110 -714 102 -189 -5 -293 -25 -430 -81 -213 -86 -413 -280 -529
-512 -108 -215 -182 -551 -182 -827 0 -99 7 -120 50 -142 40 -21 58 -19 110
10 241 135 400 192 640 229 274 43 588 23 808 -51 469 -157 703 -525 729
-1148 16 -398 -76 -755 -268 -1042 -74 -110 -243 -277 -358 -352 -289 -189
-628 -273 -1041 -258 -417 16 -725 131 -949 357 -206 206 -348 547 -410 985
-36 254 -45 418 -45 810 0 415 14 613 60 877 82 470 251 865 487 1137 262 302
674 500 1123 539 139 13 362 13 474 2z"/>
<path d="M2495 2534 c-238 -37 -394 -90 -582 -200 -147 -86 -136 -58 -130
-334 10 -431 72 -739 188 -937 51 -87 171 -203 249 -241 186 -91 453 -100 649
-22 197 77 359 268 431 508 36 117 7 182 -80 182 -51 0 -84 -29 -100 -87 -37
-137 -121 -279 -203 -345 -104 -81 -191 -109 -347 -109 -118 0 -197 17 -273
58 -189 104 -298 433 -314 953 l-5 185 58 32 c287 155 620 204 836 123 32 -12
82 -44 118 -75 54 -46 70 -55 103 -55 77 0 119 78 82 150 -34 65 -175 153
-307 190 -72 21 -299 35 -373 24z"/>
<path d="M3181 1914 c-25 -21 -31 -33 -31 -66 0 -53 14 -77 57 -94 27 -12 42
-13 69 -4 44 15 64 45 64 96 0 35 -5 47 -31 68 -19 17 -43 26 -64 26 -21 0
-45 -9 -64 -26z"/>
</g>
</svg>
