<?xml version="1.0" standalone="no"?>
<!DOCTYPE svg PUBLIC "-//W3C//DTD SVG 20010904//EN"
 "http://www.w3.org/TR/2001/REC-SVG-20010904/DTD/svg10.dtd">
<svg version="1.0" xmlns="http://www.w3.org/2000/svg"
 width="512.000000pt" height="512.000000pt" viewBox="0 0 512.000000 512.000000"
 preserveAspectRatio="xMidYMid meet">

<g transform="translate(0.000000,512.000000) scale(0.100000,-0.100000)"
fill="#fff" stroke="none">
<path d="M982 5100 c-123 -56 -172 -205 -172 -519 1 -301 46 -437 163 -496
l51 -25 968 0 c532 0 968 -3 968 -7 0 -5 -140 -318 -311 -696 -339 -750 -328
-721 -267 -772 38 -32 88 -33 122 -2 32 28 716 1538 716 1580 0 39 -15 64 -50
82 -25 13 -161 15 -1069 15 l-1040 0 -15 28 c-28 55 -38 158 -34 340 4 140 9
189 24 232 l19 55 1487 3 c931 1 1496 -2 1512 -8 43 -16 51 -68 51 -320 0
-244 -8 -312 -55 -440 -27 -76 -1627 -3795 -1661 -3861 -34 -68 -143 -89 -459
-89 -263 0 -460 23 -460 52 0 5 157 357 350 784 192 426 350 785 350 799 0 40
-21 73 -55 90 -18 8 -38 15 -45 15 -30 0 -72 -34 -94 -78 -38 -75 -677 -1493
-692 -1536 -34 -94 -7 -192 66 -240 101 -67 207 -81 590 -80 292 0 321 2 395
22 96 27 159 63 200 117 34 46 1672 3838 1716 3975 41 129 59 271 59 479 0
312 -45 439 -175 498 -38 17 -120 18 -1575 20 -1500 3 -1536 2 -1578 -17z"/>
<path d="M2214 2335 c-60 -31 -73 -108 -25 -156 52 -52 138 -33 161 36 28 86
-56 160 -136 120z"/>
</g>
</svg>
