<?xml version="1.0" standalone="no"?>
<!DOCTYPE svg PUBLIC "-//W3C//DTD SVG 20010904//EN"
 "http://www.w3.org/TR/2001/REC-SVG-20010904/DTD/svg10.dtd">
<svg version="1.0" xmlns="http://www.w3.org/2000/svg"
 width="512.000000pt" height="512.000000pt" viewBox="0 0 512.000000 512.000000"
 preserveAspectRatio="xMidYMid meet">

<g transform="translate(0.000000,512.000000) scale(0.100000,-0.100000)"
fill="#fff" stroke="none">
<path d="M2390 5114 c-745 -66 -1224 -379 -1405 -918 -76 -226 -91 -516 -39
-751 71 -316 301 -615 652 -845 23 -15 21 -17 -102 -97 -492 -325 -716 -693
-716 -1182 0 -733 455 -1182 1316 -1298 182 -24 648 -24 824 0 290 41 500 102
700 203 324 164 535 406 645 737 91 272 99 621 20 860 -98 300 -316 561 -655
785 -63 42 -119 79 -123 82 -4 4 36 40 90 80 425 319 642 750 603 1197 -28
323 -128 553 -324 749 -199 200 -491 328 -865 380 -101 14 -524 26 -621 18z
m609 -218 c411 -62 687 -211 851 -461 86 -133 131 -275 150 -472 42 -447 -190
-827 -705 -1157 -96 -61 -114 -90 -93 -144 15 -40 14 -39 191 -142 402 -235
633 -496 719 -814 28 -101 35 -330 14 -461 -79 -513 -388 -829 -949 -970 -325
-82 -780 -97 -1147 -39 -689 109 -1049 480 -1050 1085 -1 448 220 776 725
1075 203 121 202 120 215 158 19 59 -4 92 -111 154 -297 174 -503 377 -604
596 -128 276 -117 675 25 961 189 380 572 593 1170 649 97 9 498 -3 599 -18z"/>
<path d="M2355 4396 c-153 -30 -248 -77 -340 -170 -111 -112 -165 -256 -165
-441 0 -208 58 -343 215 -501 105 -105 188 -165 395 -283 149 -86 164 -87 258
-29 307 192 489 408 538 638 12 55 15 107 11 195 -8 192 -57 316 -168 426 -66
65 -186 129 -289 154 -90 23 -362 29 -455 11z m380 -201 c151 -32 261 -115
305 -231 28 -75 39 -230 20 -312 -37 -165 -165 -321 -386 -470 l-61 -41 -119
71 c-236 141 -340 237 -402 366 -31 65 -36 86 -40 171 -2 53 1 120 7 149 34
159 139 259 312 296 86 19 276 19 364 1z"/>
<path d="M2410 2289 c-110 -60 -292 -183 -372 -251 -143 -123 -256 -304 -292
-465 -20 -90 -20 -255 -1 -348 23 -111 77 -209 159 -291 127 -127 232 -165
290 -108 20 20 26 37 26 68 0 47 -20 75 -73 102 -96 49 -164 133 -199 247 -17
58 -20 86 -16 180 8 177 61 290 200 428 62 61 231 183 336 240 l42 24 107 -55
c289 -148 475 -311 533 -467 45 -119 45 -277 0 -396 -25 -66 -102 -155 -166
-193 -25 -15 -51 -36 -59 -47 -23 -33 -19 -81 10 -115 36 -42 75 -49 128 -22
108 56 198 149 255 265 99 200 87 485 -30 683 -72 123 -242 274 -440 393 -120
72 -316 169 -341 169 -12 0 -56 -19 -97 -41z"/>
<path d="M2499 881 c-39 -40 -40 -89 -1 -132 48 -54 134 -38 162 30 40 98 -85
177 -161 102z"/>
</g>
</svg>
